<svg xmlns="http://www.w3.org/2000/svg" viewBox="0 0 800 800">
  <path fill="#DD3F24" d="M400 0C179.1 0 0 179.1 0 400s179.1 400 400 400 400-179.1 400-400S620.9 0 400 0zm0 750c-193.3 0-350-156.7-350-350S206.7 50 400 50s350 156.7 350 350-156.7 350-350 350z"/>
  <path fill="#DD3F24" d="M550 400c0 82.8-67.2 150-150 150s-150-67.2-150-150 67.2-150 150-150 150 67.2 150 150z"/>
  <path fill="#DD3F24" d="M400 200c-110.5 0-200 89.5-200 200s89.5 200 200 200 200-89.5 200-200-89.5-200-200-200zm0 350c-82.8 0-150-67.2-150-150s67.2-150 150-150 150 67.2 150 150-67.2 150-150 150z"/>
</svg>